<?xml version="1.0" encoding="UTF-8" standalone="no"?><svg xmlns="http://www.w3.org/2000/svg" xmlns:xlink="http://www.w3.org/1999/xlink" contentScriptType="application/ecmascript" contentStyleType="text/css" height="595px" preserveAspectRatio="none" style="width:2778px;height:595px;background:#FFFFFF;" version="1.1" viewBox="0 0 2778 595" width="2778px" zoomAndPan="magnify"><defs><filter height="300%" id="fel8yaw7h5p5m" width="300%" x="-1" y="-1"><feGaussianBlur result="blurOut" stdDeviation="2.0"/><feColorMatrix in="blurOut" result="blurOut2" type="matrix" values="0 0 0 0 0 0 0 0 0 0 0 0 0 0 0 0 0 0 .4 0"/><feOffset dx="4.0" dy="4.0" in="blurOut2" result="blurOut3"/><feBlend in="SourceGraphic" in2="blurOut3" mode="normal"/></filter></defs><g><g id="MenuListDisplay"><rect fill="#FEFECE" filter="url(#fel8yaw7h5p5m)" height="50.2656" rx="12.5" ry="12.5" style="stroke:#A80036;stroke-width:1.5;" width="154" x="1598" y="87"/><line style="stroke:#A80036;stroke-width:1.5;" x1="1598" x2="1752" y1="113.2969" y2="113.2969"/><text fill="#000000" font-family="sans-serif" font-size="14" lengthAdjust="spacing" textLength="116" x="1617" y="104.9951">MenuListDisplay</text><text fill="#000000" font-family="sans-serif" font-size="12" lengthAdjust="spacing" textLength="134" x="1603" y="129.4355">Display the Main Menu</text></g><ellipse cx="1675" cy="16" fill="#000000" filter="url(#fel8yaw7h5p5m)" rx="10" ry="10" style="stroke:none;stroke-width:1.0;"/><g id="RealEstateMenu"><rect fill="#FEFECE" filter="url(#fel8yaw7h5p5m)" height="50.2656" rx="12.5" ry="12.5" style="stroke:#A80036;stroke-width:1.5;" width="300" x="1036" y="198"/><line style="stroke:#A80036;stroke-width:1.5;" x1="1036" x2="1336" y1="224.2969" y2="224.2969"/><text fill="#000000" font-family="sans-serif" font-size="14" lengthAdjust="spacing" textLength="116" x="1128" y="215.9951">RealEstateMenu</text><text fill="#000000" font-family="sans-serif" font-size="12" lengthAdjust="spacing" textLength="280" x="1041" y="240.4355">Displays a list of options related to real estate</text></g><g id="RealEstateForm"><rect fill="#FEFECE" filter="url(#fel8yaw7h5p5m)" height="50.2656" rx="12.5" ry="12.5" style="stroke:#A80036;stroke-width:1.5;" width="307" x="1032.5" y="325"/><line style="stroke:#A80036;stroke-width:1.5;" x1="1032.5" x2="1339.5" y1="351.2969" y2="351.2969"/><text fill="#000000" font-family="sans-serif" font-size="14" lengthAdjust="spacing" textLength="115" x="1128.5" y="342.9951">RealEstateForm</text><text fill="#000000" font-family="sans-serif" font-size="12" lengthAdjust="spacing" textLength="287" x="1037.5" y="367.4355">Display a form for registering a new real estate</text></g><ellipse cx="1040" cy="573" filter="url(#fel8yaw7h5p5m)" rx="10" ry="10" style="stroke:#000000;stroke-width:1.0;fill:none;"/><ellipse cx="1040.5" cy="573.5" fill="#000000" rx="6" ry="6" style="stroke:none;stroke-width:1.0;"/><g id="RealEstateList"><rect fill="#FEFECE" filter="url(#fel8yaw7h5p5m)" height="50.2656" rx="12.5" ry="12.5" style="stroke:#A80036;stroke-width:1.5;" width="191" x="783.5" y="452"/><line style="stroke:#A80036;stroke-width:1.5;" x1="783.5" x2="974.5" y1="478.2969" y2="478.2969"/><text fill="#000000" font-family="sans-serif" font-size="14" lengthAdjust="spacing" textLength="104" x="827" y="469.9951">RealEstateList</text><text fill="#000000" font-family="sans-serif" font-size="12" lengthAdjust="spacing" textLength="171" x="788.5" y="494.4355">Display a list of eeal estates</text></g><g id="EmployeeMenu"><rect fill="#FEFECE" filter="url(#fel8yaw7h5p5m)" height="50.2656" rx="12.5" ry="12.5" style="stroke:#A80036;stroke-width:1.5;" width="296" x="1527" y="198"/><line style="stroke:#A80036;stroke-width:1.5;" x1="1527" x2="1823" y1="224.2969" y2="224.2969"/><text fill="#000000" font-family="sans-serif" font-size="14" lengthAdjust="spacing" textLength="110" x="1620" y="215.9951">EmployeeMenu</text><text fill="#000000" font-family="sans-serif" font-size="12" lengthAdjust="spacing" textLength="276" x="1532" y="240.4355">Displays a list of options related to employee</text></g><g id="EmployeeForm"><rect fill="#FEFECE" filter="url(#fel8yaw7h5p5m)" height="50.2656" rx="12.5" ry="12.5" style="stroke:#A80036;stroke-width:1.5;" width="274" x="1594" y="325"/><line style="stroke:#A80036;stroke-width:1.5;" x1="1594" x2="1868" y1="351.2969" y2="351.2969"/><text fill="#000000" font-family="sans-serif" font-size="14" lengthAdjust="spacing" textLength="109" x="1676.5" y="342.9951">EmployeeForm</text><text fill="#000000" font-family="sans-serif" font-size="12" lengthAdjust="spacing" textLength="254" x="1599" y="367.4355">Display a form for registering a employee</text></g><ellipse cx="1667" cy="477" filter="url(#fel8yaw7h5p5m)" rx="10" ry="10" style="stroke:#000000;stroke-width:1.0;fill:none;"/><ellipse cx="1667.5" cy="477.5" fill="#000000" rx="6" ry="6" style="stroke:none;stroke-width:1.0;"/><g id="EmployeeList"><rect fill="#FEFECE" filter="url(#fel8yaw7h5p5m)" height="50.2656" rx="12.5" ry="12.5" style="stroke:#A80036;stroke-width:1.5;" width="184" x="1375" y="325"/><line style="stroke:#A80036;stroke-width:1.5;" x1="1375" x2="1559" y1="351.2969" y2="351.2969"/><text fill="#000000" font-family="sans-serif" font-size="14" lengthAdjust="spacing" textLength="98" x="1418" y="342.9951">EmployeeList</text><text fill="#000000" font-family="sans-serif" font-size="12" lengthAdjust="spacing" textLength="164" x="1380" y="367.4355">Display a list of employees</text></g><g id="WorkRequestMenu"><rect fill="#FEFECE" filter="url(#fel8yaw7h5p5m)" height="50.2656" rx="12.5" ry="12.5" style="stroke:#A80036;stroke-width:1.5;" width="325" x="304.5" y="198"/><line style="stroke:#A80036;stroke-width:1.5;" x1="304.5" x2="629.5" y1="224.2969" y2="224.2969"/><text fill="#000000" font-family="sans-serif" font-size="14" lengthAdjust="spacing" textLength="135" x="399.5" y="215.9951">WorkRequestMenu</text><text fill="#000000" font-family="sans-serif" font-size="12" lengthAdjust="spacing" textLength="305" x="309.5" y="240.4355">Displays a list of options related to Work requests</text></g><g id="WorkRequestForm"><rect fill="#FEFECE" filter="url(#fel8yaw7h5p5m)" height="50.2656" rx="12.5" ry="12.5" style="stroke:#A80036;stroke-width:1.5;" width="323" x="485.5" y="325"/><line style="stroke:#A80036;stroke-width:1.5;" x1="485.5" x2="808.5" y1="351.2969" y2="351.2969"/><text fill="#000000" font-family="sans-serif" font-size="14" lengthAdjust="spacing" textLength="134" x="580" y="342.9951">WorkRequestForm</text><text fill="#000000" font-family="sans-serif" font-size="12" lengthAdjust="spacing" textLength="303" x="490.5" y="367.4355">Display a form for registering a new work request</text></g><ellipse cx="348" cy="477" filter="url(#fel8yaw7h5p5m)" rx="10" ry="10" style="stroke:#000000;stroke-width:1.0;fill:none;"/><ellipse cx="348.5" cy="477.5" fill="#000000" rx="6" ry="6" style="stroke:none;stroke-width:1.0;"/><g id="WorkRequestList"><rect fill="#FEFECE" filter="url(#fel8yaw7h5p5m)" height="50.2656" rx="12.5" ry="12.5" style="stroke:#A80036;stroke-width:1.5;" width="204" x="246" y="325"/><line style="stroke:#A80036;stroke-width:1.5;" x1="246" x2="450" y1="351.2969" y2="351.2969"/><text fill="#000000" font-family="sans-serif" font-size="14" lengthAdjust="spacing" textLength="123" x="286.5" y="342.9951">WorkRequestList</text><text fill="#000000" font-family="sans-serif" font-size="12" lengthAdjust="spacing" textLength="184" x="251" y="367.4355">Display a list of work requests</text></g><g id="WorkReportList"><rect fill="#FEFECE" filter="url(#fel8yaw7h5p5m)" height="50.2656" rx="12.5" ry="12.5" style="stroke:#A80036;stroke-width:1.5;" width="204" x="7" y="325"/><line style="stroke:#A80036;stroke-width:1.5;" x1="7" x2="211" y1="351.2969" y2="351.2969"/><text fill="#000000" font-family="sans-serif" font-size="14" lengthAdjust="spacing" textLength="115" x="51.5" y="342.9951">WorkReportList</text><text fill="#000000" font-family="sans-serif" font-size="12" lengthAdjust="spacing" textLength="184" x="12" y="367.4355">Display a list of work requests</text></g><g id="ContractorMenu"><rect fill="#FEFECE" filter="url(#fel8yaw7h5p5m)" height="50.2656" rx="12.5" ry="12.5" style="stroke:#A80036;stroke-width:1.5;" width="304" x="2240" y="198"/><line style="stroke:#A80036;stroke-width:1.5;" x1="2240" x2="2544" y1="224.2969" y2="224.2969"/><text fill="#000000" font-family="sans-serif" font-size="14" lengthAdjust="spacing" textLength="117" x="2333.5" y="215.9951">ContractorMenu</text><text fill="#000000" font-family="sans-serif" font-size="12" lengthAdjust="spacing" textLength="284" x="2245" y="240.4355">Displays a list of options related to contractors</text></g><g id="ContractorForm"><rect fill="#FEFECE" filter="url(#fel8yaw7h5p5m)" height="50.2656" rx="12.5" ry="12.5" style="stroke:#A80036;stroke-width:1.5;" width="304" x="2240" y="325"/><line style="stroke:#A80036;stroke-width:1.5;" x1="2240" x2="2544" y1="351.2969" y2="351.2969"/><text fill="#000000" font-family="sans-serif" font-size="14" lengthAdjust="spacing" textLength="116" x="2334" y="342.9951">ContractorForm</text><text fill="#000000" font-family="sans-serif" font-size="12" lengthAdjust="spacing" textLength="284" x="2245" y="367.4355">Display a form for registering a new contractor</text></g><ellipse cx="2472" cy="477" filter="url(#fel8yaw7h5p5m)" rx="10" ry="10" style="stroke:#000000;stroke-width:1.0;fill:none;"/><ellipse cx="2472.5" cy="477.5" fill="#000000" rx="6" ry="6" style="stroke:none;stroke-width:1.0;"/><g id="ContractorList"><rect fill="#FEFECE" filter="url(#fel8yaw7h5p5m)" height="50.2656" rx="12.5" ry="12.5" style="stroke:#A80036;stroke-width:1.5;" width="185" x="2579.5" y="325"/><line style="stroke:#A80036;stroke-width:1.5;" x1="2579.5" x2="2764.5" y1="351.2969" y2="351.2969"/><text fill="#000000" font-family="sans-serif" font-size="14" lengthAdjust="spacing" textLength="105" x="2619.5" y="342.9951">ContractorList</text><text fill="#000000" font-family="sans-serif" font-size="12" lengthAdjust="spacing" textLength="165" x="2584.5" y="367.4355">Display a list of contractors</text></g><g id="DestinationMenu"><rect fill="#FEFECE" filter="url(#fel8yaw7h5p5m)" height="50.2656" rx="12.5" ry="12.5" style="stroke:#A80036;stroke-width:1.5;" width="301" x="1903.5" y="325"/><line style="stroke:#A80036;stroke-width:1.5;" x1="1903.5" x2="2204.5" y1="351.2969" y2="351.2969"/><text fill="#000000" font-family="sans-serif" font-size="14" lengthAdjust="spacing" textLength="122" x="1993" y="342.9951">DestinationMenu</text><text fill="#000000" font-family="sans-serif" font-size="12" lengthAdjust="spacing" textLength="281" x="1908.5" y="367.4355">Displays a list of options related to destination</text></g><ellipse cx="1946" cy="573" filter="url(#fel8yaw7h5p5m)" rx="10" ry="10" style="stroke:#000000;stroke-width:1.0;fill:none;"/><ellipse cx="1946.5" cy="573.5" fill="#000000" rx="6" ry="6" style="stroke:none;stroke-width:1.0;"/><g id="DestinationList"><rect fill="#FEFECE" filter="url(#fel8yaw7h5p5m)" height="50.2656" rx="12.5" ry="12.5" style="stroke:#A80036;stroke-width:1.5;" width="189" x="1744.5" y="452"/><line style="stroke:#A80036;stroke-width:1.5;" x1="1744.5" x2="1933.5" y1="478.2969" y2="478.2969"/><text fill="#000000" font-family="sans-serif" font-size="14" lengthAdjust="spacing" textLength="110" x="1784" y="469.9951">DestinationList</text><text fill="#000000" font-family="sans-serif" font-size="12" lengthAdjust="spacing" textLength="169" x="1749.5" y="494.4355">Display a list of destinations</text></g><g id="DestinationForm"><rect fill="#FEFECE" filter="url(#fel8yaw7h5p5m)" height="50.2656" rx="12.5" ry="12.5" style="stroke:#A80036;stroke-width:1.5;" width="171" x="1968.5" y="452"/><line style="stroke:#A80036;stroke-width:1.5;" x1="1968.5" x2="2139.5" y1="478.2969" y2="478.2969"/><text fill="#000000" font-family="sans-serif" font-size="14" lengthAdjust="spacing" textLength="121" x="1993.5" y="469.9951">DestinationForm</text><text fill="#000000" font-family="sans-serif" font-size="12" lengthAdjust="spacing" textLength="151" x="1973.5" y="494.4355">Display list of destination</text></g><!--MD5=[7badd391c890c2dd23c38bfb6b87a250]
link *start to MenuListDisplay--><path d="M1675,26.013 C1675,38.698 1675,62.409 1675,81.57 " fill="none" id="*start-to-MenuListDisplay" style="stroke:#A80036;stroke-width:1.0;"/><polygon fill="#A80036" points="1675,86.84,1679,77.84,1675,81.84,1671,77.84,1675,86.84" style="stroke:#A80036;stroke-width:1.0;"/><!--MD5=[d8304f6337cd6a851c04768cc9083ca9]
link MenuListDisplay to RealEstateMenu--><path d="M1597.79,130.211 C1517.28,148.157 1390.27,176.467 1298.59,196.904 " fill="none" id="MenuListDisplay-to-RealEstateMenu" style="stroke:#A80036;stroke-width:1.0;"/><polygon fill="#A80036" points="1293.7,197.993,1303.3539,199.943,1298.5807,196.9071,1301.6165,192.1339,1293.7,197.993" style="stroke:#A80036;stroke-width:1.0;"/><!--MD5=[504beae43b665fb1109cbc4c1b3159b1]
link RealEstateMenu to RealEstateForm--><path d="M1186,248.101 C1186,268.593 1186,298.076 1186,319.884 " fill="none" id="RealEstateMenu-to-RealEstateForm" style="stroke:#A80036;stroke-width:1.0;"/><polygon fill="#A80036" points="1186,324.973,1190,315.973,1186,319.973,1182,315.973,1186,324.973" style="stroke:#A80036;stroke-width:1.0;"/><text fill="#000000" font-family="sans-serif" font-size="13" lengthAdjust="spacing" textLength="169" x="1187" y="291.0669">Register a new real estate</text><!--MD5=[a3ee7dde06952d38046f75e8fb303432]
link RealEstateForm to end_re--><path d="M1170.1,375.072 C1138.98,422.18 1071.05,525.0066 1047.9,560.0355 " fill="none" id="RealEstateForm-to-end_re" style="stroke:#A80036;stroke-width:1.0;"/><polygon fill="#A80036" points="1045.07,564.3325,1053.3687,559.0285,1047.8263,560.1608,1046.694,554.6185,1045.07,564.3325" style="stroke:#A80036;stroke-width:1.0;"/><!--MD5=[4b6353eb4616f71bb3ec0ba1d167606c]
link RealEstateMenu to RealEstateList--><path d="M1035.68,243.576 C984.238,257.87 931.112,282.524 897,325 C869.304,359.487 870.15,413.507 874.041,446.723 " fill="none" id="RealEstateMenu-to-RealEstateList" style="stroke:#A80036;stroke-width:1.0;"/><polygon fill="#A80036" points="874.688,451.869,877.5358,442.4408,874.0652,446.9079,869.5981,443.4373,874.688,451.869" style="stroke:#A80036;stroke-width:1.0;"/><text fill="#000000" font-family="sans-serif" font-size="13" lengthAdjust="spacing" textLength="116" x="898" y="354.5669">List of Real Estate</text><!--MD5=[623e4db06f2f4ca8f2d16c737e358e0d]
link RealEstateList to end_re--><path d="M920.462,502.2073 C955.777,522.8261 1004.318,551.1669 1027.15,564.4959 " fill="none" id="RealEstateList-to-end_re" style="stroke:#A80036;stroke-width:1.0;"/><polygon fill="#A80036" points="1031.61,567.1042,1025.8649,559.1046,1027.2953,564.5776,1021.8223,566.008,1031.61,567.1042" style="stroke:#A80036;stroke-width:1.0;"/><!--MD5=[2e34a8f01b3c1b2a2ede09089fe2e7c9]
link MenuListDisplay to EmployeeMenu--><path d="M1675,137.191 C1675,153.56 1675,175.279 1675,192.64 " fill="none" id="MenuListDisplay-to-EmployeeMenu" style="stroke:#A80036;stroke-width:1.0;"/><polygon fill="#A80036" points="1675,197.877,1679,188.877,1675,192.877,1671,188.877,1675,197.877" style="stroke:#A80036;stroke-width:1.0;"/><!--MD5=[d0a1d9324c9d8e512474293a519507d4]
link EmployeeMenu to EmployeeForm--><path d="M1685.8,248.101 C1695.02,268.68 1708.3,298.325 1718.08,320.16 " fill="none" id="EmployeeMenu-to-EmployeeForm" style="stroke:#A80036;stroke-width:1.0;"/><polygon fill="#A80036" points="1720.24,324.973,1720.2175,315.1242,1718.1989,320.4086,1712.9144,318.39,1720.24,324.973" style="stroke:#A80036;stroke-width:1.0;"/><text fill="#000000" font-family="sans-serif" font-size="13" lengthAdjust="spacing" textLength="164" x="1708" y="291.0669">Register a new employee</text><!--MD5=[01384a5fca15048f7bdec5817d487cc9]
link EmployeeForm to end_em--><path d="M1718.66,375.101 C1705.21,401.373 1684.19,442.423 1673.59,463.131 " fill="none" id="EmployeeForm-to-end_em" style="stroke:#A80036;stroke-width:1.0;"/><polygon fill="#A80036" points="1671.25,467.702,1678.9098,461.5111,1673.5271,463.2506,1671.7876,457.8678,1671.25,467.702" style="stroke:#A80036;stroke-width:1.0;"/><!--MD5=[96ac570b928cdcae0018f6cfd616db7b]
link EmployeeMenu to EmployeeList--><path d="M1628.74,248.266 C1611.97,257.318 1592.98,267.862 1576,278 C1552.65,291.945 1527.14,308.483 1506.68,322.088 " fill="none" id="EmployeeMenu-to-EmployeeList" style="stroke:#A80036;stroke-width:1.0;"/><polygon fill="#A80036" points="1502.39,324.945,1512.0941,323.2625,1506.545,322.1636,1507.6438,316.6145,1502.39,324.945" style="stroke:#A80036;stroke-width:1.0;"/><text fill="#000000" font-family="sans-serif" font-size="13" lengthAdjust="spacing" textLength="114" x="1577" y="291.0669">List of employees</text><!--MD5=[22fcafdf27d4ecbb8a67794ab951cc87]
link EmployeeList to end_em--><path d="M1505.56,375.101 C1551.46,403.789 1625.56,450.098 1654.68,468.301 " fill="none" id="EmployeeList-to-end_em" style="stroke:#A80036;stroke-width:1.0;"/><polygon fill="#A80036" points="1658.96,470.974,1653.4579,462.8054,1654.7232,468.3189,1649.2097,469.5842,1658.96,470.974" style="stroke:#A80036;stroke-width:1.0;"/><!--MD5=[9bf7e6e617ddc0ef7f74c39e966a046d]
link MenuListDisplay to WorkRequestMenu--><path d="M1597.6,119.984 C1404.79,137.382 899.581,182.967 634.638,206.874 " fill="none" id="MenuListDisplay-to-WorkRequestMenu" style="stroke:#A80036;stroke-width:1.0;"/><polygon fill="#A80036" points="629.59,207.329,638.9135,210.5028,634.5697,206.879,638.1935,202.5353,629.59,207.329" style="stroke:#A80036;stroke-width:1.0;"/><!--MD5=[d4a286a408c671e815750644b0bc81c9]
link WorkRequestMenu to WorkRequestForm--><path d="M502.461,248.094 C516.1,257.399 531.8,268.157 546,278 C566.798,292.418 589.896,308.639 608.748,321.933 " fill="none" id="WorkRequestMenu-to-WorkRequestForm" style="stroke:#A80036;stroke-width:1.0;"/><polygon fill="#A80036" points="612.95,324.898,607.9024,316.4409,608.8646,322.0154,603.2902,322.9776,612.95,324.898" style="stroke:#A80036;stroke-width:1.0;"/><text fill="#000000" font-family="sans-serif" font-size="13" lengthAdjust="spacing" textLength="174" x="570" y="291.0669">Register new Work request</text><!--MD5=[f2f588313e3ecc8fdadd05ac56caafc5]
link WorkRequestForm to end_wr--><path d="M589.35,375.101 C518.215,404.84 401.784,453.515 361.907,470.186 " fill="none" id="WorkRequestForm-to-end_wr" style="stroke:#A80036;stroke-width:1.0;"/><polygon fill="#A80036" points="357.01,472.233,366.8564,472.4519,361.6231,470.3043,363.7706,465.071,357.01,472.233" style="stroke:#A80036;stroke-width:1.0;"/><!--MD5=[e788258a37af7b3ed2f556a8bcb32382]
link WorkRequestMenu to WorkRequestList--><path d="M438.437,248.194 C428.218,257.238 416.809,267.796 407,278 C394.015,291.507 380.586,307.485 369.826,320.859 " fill="none" id="WorkRequestMenu-to-WorkRequestList" style="stroke:#A80036;stroke-width:1.0;"/><polygon fill="#A80036" points="366.576,324.921,375.3223,320.3931,369.7,321.0171,369.0761,315.3947,366.576,324.921" style="stroke:#A80036;stroke-width:1.0;"/><text fill="#000000" font-family="sans-serif" font-size="13" lengthAdjust="spacing" textLength="133" x="408" y="291.0669">List of Work Request</text><!--MD5=[62870f49d11108ceef2ae0fe6b1e6a49]
link WorkRequestList to end_wr--><path d="M348,375.101 C348,400.76 348,440.517 348,461.65 " fill="none" id="WorkRequestList-to-end_wr" style="stroke:#A80036;stroke-width:1.0;"/><polygon fill="#A80036" points="348,466.846,352,457.846,348,461.846,344,457.846,348,466.846" style="stroke:#A80036;stroke-width:1.0;"/><!--MD5=[5d23344a5ee3a52b0ddccac4816fcfad]
link WorkRequestMenu to WorkReportList--><path d="M358.668,248.019 C326.228,256.306 290.827,266.453 259,278 C224.55,290.499 187.304,308.105 158.544,322.658 " fill="none" id="WorkRequestMenu-to-WorkReportList" style="stroke:#A80036;stroke-width:1.0;"/><polygon fill="#A80036" points="154.003,324.966,163.8385,324.4534,158.4602,322.7003,160.2133,317.3219,154.003,324.966" style="stroke:#A80036;stroke-width:1.0;"/><text fill="#000000" font-family="sans-serif" font-size="13" lengthAdjust="spacing" textLength="123" x="260" y="291.0669">List of Work Report</text><!--MD5=[b50353c8758f45beb11db67e536d73ca]
link WorkReportList to end_wr--><path d="M155.082,375.101 C210.675,404.177 300.881,451.356 334.664,469.025 " fill="none" id="WorkReportList-to-end_wr" style="stroke:#A80036;stroke-width:1.0;"/><polygon fill="#A80036" points="339.228,471.412,333.106,463.697,334.7972,469.0952,329.399,470.7864,339.228,471.412" style="stroke:#A80036;stroke-width:1.0;"/><!--MD5=[a9f4db7790385cd846c162fbc8328fda]
link MenuListDisplay to ContractorMenu--><path d="M1752.07,124.717 C1866.81,142.16 2085.04,175.335 2234.46,198.051 " fill="none" id="MenuListDisplay-to-ContractorMenu" style="stroke:#A80036;stroke-width:1.0;"/><polygon fill="#A80036" points="2239.75,198.855,2231.4594,193.5384,2234.8076,198.0979,2230.2481,201.4462,2239.75,198.855" style="stroke:#A80036;stroke-width:1.0;"/><!--MD5=[fb2e1c04f4a0335d506f437aae279547]
link ContractorMenu to ContractorForm--><path d="M2392,248.101 C2392,268.593 2392,298.076 2392,319.884 " fill="none" id="ContractorMenu-to-ContractorForm" style="stroke:#A80036;stroke-width:1.0;"/><polygon fill="#A80036" points="2392,324.973,2396,315.973,2392,319.973,2388,315.973,2392,324.973" style="stroke:#A80036;stroke-width:1.0;"/><text fill="#000000" font-family="sans-serif" font-size="13" lengthAdjust="spacing" textLength="166" x="2393" y="291.0669">Register a new contractor</text><!--MD5=[3bdcd0ecd16d990342c71c6a216f98ae]
link ContractorForm to end_co--><path d="M2407.42,375.101 C2424.48,401.748 2451.26,443.597 2464.32,464.005 " fill="none" id="ContractorForm-to-end_co" style="stroke:#A80036;stroke-width:1.0;"/><polygon fill="#A80036" points="2467.04,468.251,2465.5623,458.5136,2464.3468,464.0383,2458.822,462.8228,2467.04,468.251" style="stroke:#A80036;stroke-width:1.0;"/><!--MD5=[5a14abd0869388726f578266d6067b31]
link ContractorMenu to ContractorList--><path d="M2488.99,248.049 C2515.24,256.081 2543.23,266.085 2568,278 C2592.73,289.894 2618.21,307.191 2637.76,321.735 " fill="none" id="ContractorMenu-to-ContractorList" style="stroke:#A80036;stroke-width:1.0;"/><polygon fill="#A80036" points="2642.09,324.984,2637.29,316.384,2638.09,321.984,2632.49,322.784,2642.09,324.984" style="stroke:#A80036;stroke-width:1.0;"/><text fill="#000000" font-family="sans-serif" font-size="13" lengthAdjust="spacing" textLength="116" x="2600" y="291.0669">List of contractors</text><!--MD5=[616025bbdf60e2cf1a973ebb977039f9]
link ContractorList to end_co--><path d="M2633.44,375.101 C2587.54,403.789 2513.44,450.098 2484.32,468.301 " fill="none" id="ContractorList-to-end_co" style="stroke:#A80036;stroke-width:1.0;"/><polygon fill="#A80036" points="2480.04,470.974,2489.7903,469.5842,2484.2768,468.3189,2485.5421,462.8054,2480.04,470.974" style="stroke:#A80036;stroke-width:1.0;"/><!--MD5=[840b1d61f7fee067ab0054a55899367d]
link MenuListDisplay to DestinationMenu--><path d="M1726.18,137.08 C1759.28,153.206 1802.94,175.528 1840,198 C1905.22,237.546 1976.85,290.097 2018.49,321.632 " fill="none" id="MenuListDisplay-to-DestinationMenu" style="stroke:#A80036;stroke-width:1.0;"/><polygon fill="#A80036" points="2022.67,324.806,2017.9059,316.186,2018.6826,321.7893,2013.0793,322.5659,2022.67,324.806" style="stroke:#A80036;stroke-width:1.0;"/><!--MD5=[d2ca999319371f4ea7ebd4b9ac3b7a07]
link DestinationMenu to DestinationList--><path d="M1922.74,375.028 C1891.46,383.202 1863.95,393.285 1853,405 C1842.69,416.037 1838.97,432.368 1837.93,446.586 " fill="none" id="DestinationMenu-to-DestinationList" style="stroke:#A80036;stroke-width:1.0;"/><polygon fill="#A80036" points="1837.67,451.715,1842.1358,442.9368,1837.9318,446.7219,1834.1468,442.5179,1837.67,451.715" style="stroke:#A80036;stroke-width:1.0;"/><text fill="#000000" font-family="sans-serif" font-size="13" lengthAdjust="spacing" textLength="114" x="1854" y="418.0669">List of destination</text><!--MD5=[b9bc0ca1cb42ee15ccf17b7577b61c9b]
link DestinationList to end_dest--><path d="M1866.56,502.2073 C1888.74,521.6986 1918.78,548.0905 1934.82,562.1784 " fill="none" id="DestinationList-to-end_dest" style="stroke:#A80036;stroke-width:1.0;"/><polygon fill="#A80036" points="1938.95,565.8097,1934.8287,556.8646,1935.1937,562.5097,1929.5486,562.8747,1938.95,565.8097" style="stroke:#A80036;stroke-width:1.0;"/><!--MD5=[f2d9ee9478060e59102875c0d677c7bb]
link DestinationMenu to DestinationForm--><path d="M2054,375.101 C2054,395.593 2054,425.076 2054,446.884 " fill="none" id="DestinationMenu-to-DestinationForm" style="stroke:#A80036;stroke-width:1.0;"/><polygon fill="#A80036" points="2054,451.973,2058,442.973,2054,446.973,2050,442.973,2054,451.973" style="stroke:#A80036;stroke-width:1.0;"/><text fill="#000000" font-family="sans-serif" font-size="13" lengthAdjust="spacing" textLength="173" x="2055" y="418.0669">Register a new Destination</text><!--MD5=[d41a906ee160a84d86afb80aa8559a29]
link DestinationForm to end_dest--><path d="M2026.19,502.2073 C2003.79,521.6986 1973.47,548.0905 1957.28,562.1784 " fill="none" id="DestinationForm-to-end_dest" style="stroke:#A80036;stroke-width:1.0;"/><polygon fill="#A80036" points="1953.11,565.8097,1962.5235,562.9139,1956.88,562.5253,1957.2685,556.8818,1953.11,565.8097" style="stroke:#A80036;stroke-width:1.0;"/><!--MD5=[b5d992be12bbbe6cfa11f66827fd94f3]
link WorkRequestForm to RealEstateList--><path d="M691.732,375.101 C731.209,396.371 788.666,427.329 829.509,449.335 " fill="none" id="WorkRequestForm-to-RealEstateList" style="stroke:#0000FF;stroke-width:1.0;"/><polygon fill="#0000FF" points="834.405,451.973,828.3781,444.1835,830.0029,449.602,824.5844,451.2268,834.405,451.973" style="stroke:#0000FF;stroke-width:1.0;"/><!--MD5=[0b3445cdf21ac3fc3fe91fd9802ee04e]
link EmployeeForm to DestinationList--><path d="M1751.82,375.101 C1769.83,395.939 1795.86,426.074 1814.79,447.982 " fill="none" id="EmployeeForm-to-DestinationList" style="stroke:#0000FF;stroke-width:1.0;"/><polygon fill="#0000FF" points="1818.24,451.973,1815.386,442.5467,1814.9724,448.1884,1809.3307,447.7748,1818.24,451.973" style="stroke:#0000FF;stroke-width:1.0;"/><!--MD5=[84281c2adf82a25f2097973cc78e4e96]
link ContractorForm to DestinationList--><path d="M2239.86,373.486 C2156.17,386.081 2065.4,400.198 2046,405 C1997.98,416.885 1945.26,435.047 1905.04,450.027 " fill="none" id="ContractorForm-to-DestinationList" style="stroke:#0000FF;stroke-width:1.0;"/><polygon fill="#0000FF" points="1900.2,451.837,1910.03,452.4465,1904.886,450.093,1907.2395,444.949,1900.2,451.837" style="stroke:#0000FF;stroke-width:1.0;"/><!--MD5=[d284092299066d31142c90f171d97dd9]
link RealEstateForm to DestinationList--><path d="M1311.52,375.027 C1436.09,398.873 1624.55,434.948 1739.25,456.905 " fill="none" id="RealEstateForm-to-DestinationList" style="stroke:#0000FF;stroke-width:1.0;"/><polygon fill="#0000FF" points="1744.31,457.875,1736.2258,452.2495,1739.3997,456.9321,1734.7172,460.106,1744.31,457.875" style="stroke:#0000FF;stroke-width:1.0;"/><!--MD5=[f15d9b1fa2882b1e5822922139f68b5c]
@startuml
state MenuListDisplay : Display the Main Menu
    [*] - -> MenuListDisplay
    
    state RealEstateMenu : Displays a list of options related to real estate
    MenuListDisplay - -> RealEstateMenu
    state RealEstateForm : Display a form for registering a new real estate
    RealEstateMenu - -> RealEstateForm : Register a new real estate
    state end_re <<end>>
    RealEstateForm - -> end_re
    
    state RealEstateList : Display a list of eeal estates
    RealEstateMenu - -> RealEstateList : List of Real Estate
    RealEstateList - -> end_re
    
    state EmployeeMenu : Displays a list of options related to employee
    MenuListDisplay - -> EmployeeMenu 
    state EmployeeForm : Display a form for registering a employee
    
    EmployeeMenu - -> EmployeeForm : Register a new employee
    state end_em <<end>>
    EmployeeForm - -> end_em

    
    state EmployeeList : Display a list of employees
    EmployeeMenu - -> EmployeeList : List of employees
    EmployeeList - -> end_em
    
    state WorkRequestMenu : Displays a list of options related to Work requests
    MenuListDisplay - -> WorkRequestMenu
    state WorkRequestForm : Display a form for registering a new work request
    
    WorkRequestMenu - -> WorkRequestForm : Register new Work request
    state end_wr <<end>>
    WorkRequestForm - -> end_wr

    state WorkRequestList : Display a list of work requests
    WorkRequestMenu - -> WorkRequestList : List of Work Request
    WorkRequestList - -> end_wr
    
    state WorkReportList : Display a list of work requests
    WorkRequestMenu - -> WorkReportList : List of Work Report
    WorkReportList - -> end_wr

    state ContractorMenu : Displays a list of options related to contractors
    MenuListDisplay - -> ContractorMenu
    
    state ContractorForm : Display a form for registering a new contractor
    ContractorMenu - -> ContractorForm : Register a new contractor
    state end_co <<end>>
    ContractorForm - -> end_co

    state ContractorList : Display a list of contractors
    ContractorMenu - -> ContractorList : List of contractors
    ContractorList - -> end_co

    state DestinationMenu : Displays a list of options related to destination
    MenuListDisplay - -> DestinationMenu
    state end_dest <<end>>
    state DestinationList : Display a list of destinations
    DestinationMenu - -> DestinationList : List of destination
    DestinationList - -> end_dest
    state DestinationForm : Display list of destination
    DestinationMenu - -> DestinationForm : Register a new Destination
    DestinationForm - -> end_dest
    
    WorkRequestForm -[#blue]-> RealEstateList
    EmployeeForm -[#blue]-> DestinationList
    ContractorForm -[#blue]-> DestinationList
    RealEstateForm -[#blue]-> DestinationList
@enduml

PlantUML version 1.2021.16beta3(Unknown compile time)
(GPL source distribution)
Java Runtime: Java(TM) SE Runtime Environment
JVM: Java HotSpot(TM) 64-Bit Server VM
Default Encoding: UTF-8
Language: en
Country: US
--></g></svg>